{"accessors":[{"bufferView":0,"byteOffset":0,"componentType":5126,"count":4,"max":[0.049,0.03517457805235724,0.013999999999999999],"min":[0.0009999999999999998,0.03517457805235723,-0.014000000000000004],"type":"VEC3"},{"bufferView":0,"byteOffset":48,"componentType":5126,"count":60,"max":[0.0009999999999999998,0.03517457805235724,0.013999999999999999],"min":[-2.220446049250313e-19,0.03417457805235723,-0.014000000000000005],"type":"VEC3"},{"bufferView":0,"byteOffset":768,"componentType":5126,"count":60,"max":[0.049,0.03517457805235723,-0.014000000000000004],"min":[0.0009999999999999998,0.03417457805235723,-0.015000000000000006],"type":"VEC3"},{"bufferView":0,"byteOffset":1488,"componentType":5126,"count":60,"max":[0.049,0.03517457805235724,0.014999999999999994],"min":[0.0009999999999999998,0.03417457805235724,0.013999999999999999],"type":"VEC3"},{"bufferView":0,"byteOffset":2208,"componentType":5126,"count":60,"max":[0.05,0.03517457805235724,0.013999999999999999],"min":[0.049,0.03417457805235723,-0.014000000000000005],"type":"VEC3"},{"bufferView":0,"byteOffset":2928,"componentType":5126,"count":498,"max":[0.001,0.03517457805235723,-0.014000000000000004],"min":[-2.220446049250313e-19,0.03417457805235722,-0.015000000000000006],"type":"VEC3"},{"bufferView":0,"byteOffset":8904,"componentType":5126,"count":498,"max":[0.001,0.03517457805235724,0.014999999999999994],"min":[-2.220446049250313e-19,0.034174578052357234,0.013999999999999995],"type":"VEC3"},{"bufferView":0,"byteOffset":14880,"componentType":5126,"count":4,"max":[-2.220446049250313e-19,0.03417457805235724,0.014000000000000007],"min":[-2.220446049250313e-19,0.00617457805235723,-0.014000000000000005],"type":"VEC3"},{"bufferView":0,"byteOffset":14928,"componentType":5126,"count":4,"max":[0.049,0.03417457805235723,-0.015000000000000005],"min":[0.001,0.006174578052357226,-0.015000000000000006],"type":"VEC3"},{"bufferView":0,"byteOffset":14976,"componentType":5126,"count":498,"max":[0.05,0.03517457805235723,-0.014000000000000004],"min":[0.049,0.03417457805235722,-0.015000000000000006],"type":"VEC3"},{"bufferView":0,"byteOffset":20952,"componentType":5126,"count":4,"max":[0.049,0.03417457805235725,0.014999999999999996],"min":[0.001,0.0061745780523572375,0.014999999999999994],"type":"VEC3"},{"bufferView":0,"byteOffset":21000,"componentType":5126,"count":498,"max":[0.05,0.03517457805235724,0.014999999999999994],"min":[0.049,0.034174578052357234,0.013999999999999995],"type":"VEC3"},{"bufferView":0,"byteOffset":26976,"componentType":5126,"count":4,"max":[0.05,0.03417457805235724,0.014000000000000007],"min":[0.05,0.0061745780523572305,-0.014000000000000005],"type":"VEC3"},{"bufferView":0,"byteOffset":27024,"componentType":5126,"count":60,"max":[0.001,0.03417457805235723,-0.013999999999999999],"min":[-2.220446049250313e-19,0.00617457805235723,-0.015000000000000006],"type":"VEC3"},{"bufferView":0,"byteOffset":27744,"componentType":5126,"count":60,"max":[0.001,0.03417457805235724,0.014999999999999996],"min":[-2.220446049250313e-19,0.006174578052357231,0.013999999999999999],"type":"VEC3"},{"bufferView":0,"byteOffset":28464,"componentType":5126,"count":60,"max":[0.0009999999999999998,0.006174578052357236,0.014000000000000007],"min":[-2.220446049250313e-19,0.0051745780523572305,-0.014000000000000004],"type":"VEC3"},{"bufferView":0,"byteOffset":29184,"componentType":5126,"count":60,"max":[0.05,0.03417457805235723,-0.013999999999999999],"min":[0.049,0.006174578052357226,-0.015000000000000006],"type":"VEC3"},{"bufferView":0,"byteOffset":29904,"componentType":5126,"count":60,"max":[0.049,0.0061745780523572305,-0.014000000000000004],"min":[0.0009999999999999998,0.0051745780523572305,-0.015000000000000005],"type":"VEC3"},{"bufferView":0,"byteOffset":30624,"componentType":5126,"count":60,"max":[0.05,0.03417457805235724,0.014999999999999996],"min":[0.049,0.006174578052357231,0.013999999999999999],"type":"VEC3"},{"bufferView":0,"byteOffset":31344,"componentType":5126,"count":60,"max":[0.04900000000000001,0.006174578052357241,0.014999999999999996],"min":[0.0009999999999999998,0.005174578052357237,0.013999999999999997],"type":"VEC3"},{"bufferView":0,"byteOffset":32064,"componentType":5126,"count":60,"max":[0.05,0.006174578052357237,0.014000000000000007],"min":[0.049,0.0051745780523572305,-0.014000000000000004],"type":"VEC3"},{"bufferView":0,"byteOffset":32784,"componentType":5126,"count":498,"max":[0.001,0.0061745780523572305,-0.013999999999999999],"min":[-2.220446049250313e-19,0.0051745780523572305,-0.015000000000000005],"type":"VEC3"},{"bufferView":0,"byteOffset":38760,"componentType":5126,"count":498,"max":[0.001,0.0061745780523572375,0.014999999999999996],"min":[-2.220446049250313e-19,0.005174578052357237,0.013999999999999997],"type":"VEC3"},{"bufferView":0,"byteOffset":44736,"componentType":5126,"count":4,"max":[0.049,0.005174578052357237,0.013999999999999997],"min":[0.0009999999999999998,0.0051745780523572305,-0.014000000000000004],"type":"VEC3"},{"bufferView":0,"byteOffset":44784,"componentType":5126,"count":498,"max":[0.05,0.006174578052357231,-0.013999999999999999],"min":[0.049,0.0051745780523572305,-0.015000000000000005],"type":"VEC3"},{"bufferView":0,"byteOffset":50760,"componentType":5126,"count":498,"max":[0.05,0.006174578052357241,0.014999999999999996],"min":[0.049,0.005174578052357237,0.013999999999999997],"type":"VEC3"},{"bufferView":1,"byteOffset":0,"componentType":5126,"count":4,"type":"VEC3"},{"bufferView":1,"byteOffset":48,"componentType":5126,"count":60,"type":"VEC3"},{"bufferView":1,"byteOffset":768,"componentType":5126,"count":60,"type":"VEC3"},{"bufferView":1,"byteOffset":1488,"componentType":5126,"count":60,"type":"VEC3"},{"bufferView":1,"byteOffset":2208,"componentType":5126,"count":60,"type":"VEC3"},{"bufferView":1,"byteOffset":2928,"componentType":5126,"count":498,"type":"VEC3"},{"bufferView":1,"byteOffset":8904,"componentType":5126,"count":498,"type":"VEC3"},{"bufferView":1,"byteOffset":14880,"componentType":5126,"count":4,"type":"VEC3"},{"bufferView":1,"byteOffset":14928,"componentType":5126,"count":4,"type":"VEC3"},{"bufferView":1,"byteOffset":14976,"componentType":5126,"count":498,"type":"VEC3"},{"bufferView":1,"byteOffset":20952,"componentType":5126,"count":4,"type":"VEC3"},{"bufferView":1,"byteOffset":21000,"componentType":5126,"count":498,"type":"VEC3"},{"bufferView":1,"byteOffset":26976,"componentType":5126,"count":4,"type":"VEC3"},{"bufferView":1,"byteOffset":27024,"componentType":5126,"count":60,"type":"VEC3"},{"bufferView":1,"byteOffset":27744,"componentType":5126,"count":60,"type":"VEC3"},{"bufferView":1,"byteOffset":28464,"componentType":5126,"count":60,"type":"VEC3"},{"bufferView":1,"byteOffset":29184,"componentType":5126,"count":60,"type":"VEC3"},{"bufferView":1,"byteOffset":29904,"componentType":5126,"count":60,"type":"VEC3"},{"bufferView":1,"byteOffset":30624,"componentType":5126,"count":60,"type":"VEC3"},{"bufferView":1,"byteOffset":31344,"componentType":5126,"count":60,"type":"VEC3"},{"bufferView":1,"byteOffset":32064,"componentType":5126,"count":60,"type":"VEC3"},{"bufferView":1,"byteOffset":32784,"componentType":5126,"count":498,"type":"VEC3"},{"bufferView":1,"byteOffset":38760,"componentType":5126,"count":498,"type":"VEC3"},{"bufferView":1,"byteOffset":44736,"componentType":5126,"count":4,"type":"VEC3"},{"bufferView":1,"byteOffset":44784,"componentType":5126,"count":498,"type":"VEC3"},{"bufferView":1,"byteOffset":50760,"componentType":5126,"count":498,"type":"VEC3"},{"bufferView":2,"byteOffset":0,"componentType":5123,"count":6,"type":"SCALAR"},{"bufferView":2,"byteOffset":12,"componentType":5123,"count":174,"type":"SCALAR"},{"bufferView":2,"byteOffset":360,"componentType":5123,"count":174,"type":"SCALAR"},{"bufferView":2,"byteOffset":708,"componentType":5123,"count":174,"type":"SCALAR"},{"bufferView":2,"byteOffset":1056,"componentType":5123,"count":174,"type":"SCALAR"},{"bufferView":2,"byteOffset":1404,"componentType":5123,"count":2718,"type":"SCALAR"},{"bufferView":2,"byteOffset":6840,"componentType":5123,"count":2718,"type":"SCALAR"},{"bufferView":2,"byteOffset":12276,"componentType":5123,"count":6,"type":"SCALAR"},{"bufferView":2,"byteOffset":12288,"componentType":5123,"count":6,"type":"SCALAR"},{"bufferView":2,"byteOffset":12300,"componentType":5123,"count":2718,"type":"SCALAR"},{"bufferView":2,"byteOffset":17736,"componentType":5123,"count":6,"type":"SCALAR"},{"bufferView":2,"byteOffset":17748,"componentType":5123,"count":2718,"type":"SCALAR"},{"bufferView":2,"byteOffset":23184,"componentType":5123,"count":6,"type":"SCALAR"},{"bufferView":2,"byteOffset":23196,"componentType":5123,"count":174,"type":"SCALAR"},{"bufferView":2,"byteOffset":23544,"componentType":5123,"count":174,"type":"SCALAR"},{"bufferView":2,"byteOffset":23892,"componentType":5123,"count":174,"type":"SCALAR"},{"bufferView":2,"byteOffset":24240,"componentType":5123,"count":174,"type":"SCALAR"},{"bufferView":2,"byteOffset":24588,"componentType":5123,"count":174,"type":"SCALAR"},{"bufferView":2,"byteOffset":24936,"componentType":5123,"count":174,"type":"SCALAR"},{"bufferView":2,"byteOffset":25284,"componentType":5123,"count":174,"type":"SCALAR"},{"bufferView":2,"byteOffset":25632,"componentType":5123,"count":174,"type":"SCALAR"},{"bufferView":2,"byteOffset":25980,"componentType":5123,"count":2718,"type":"SCALAR"},{"bufferView":2,"byteOffset":31416,"componentType":5123,"count":2718,"type":"SCALAR"},{"bufferView":2,"byteOffset":36852,"componentType":5123,"count":6,"type":"SCALAR"},{"bufferView":2,"byteOffset":36864,"componentType":5123,"count":2718,"type":"SCALAR"},{"bufferView":2,"byteOffset":42300,"componentType":5123,"count":2718,"type":"SCALAR"}],"asset":{"generator":"Open CASCADE Technology 7.8 [dev.opencascade.org]","version":"2.0"},"bufferViews":[{"buffer":0,"byteLength":56736,"byteOffset":0,"byteStride":12,"target":34962},{"buffer":0,"byteLength":56736,"byteOffset":56736,"byteStride":12,"target":34962},{"buffer":0,"byteLength":47736,"byteOffset":113472,"target":34963}],"buffers":[{"byteLength":161208,"uri":"test-Body.bin"}],"materials":[{"name":"mat_0","pbrMetallicRoughness":{"baseColorFactor":[0.168269544839859,0.19120186567306519,0.21586069464683533,1.0]},"doubleSided":true}],"meshes":[{"name":"Body","primitives":[{"attributes":{"NORMAL":26,"POSITION":0},"indices":52,"material":0,"mode":4},{"attributes":{"NORMAL":27,"POSITION":1},"indices":53,"material":0,"mode":4},{"attributes":{"NORMAL":28,"POSITION":2},"indices":54,"material":0,"mode":4},{"attributes":{"NORMAL":29,"POSITION":3},"indices":55,"material":0,"mode":4},{"attributes":{"NORMAL":30,"POSITION":4},"indices":56,"material":0,"mode":4},{"attributes":{"NORMAL":31,"POSITION":5},"indices":57,"material":0,"mode":4},{"attributes":{"NORMAL":32,"POSITION":6},"indices":58,"material":0,"mode":4},{"attributes":{"NORMAL":33,"POSITION":7},"indices":59,"material":0,"mode":4},{"attributes":{"NORMAL":34,"POSITION":8},"indices":60,"material":0,"mode":4},{"attributes":{"NORMAL":35,"POSITION":9},"indices":61,"material":0,"mode":4},{"attributes":{"NORMAL":36,"POSITION":10},"indices":62,"material":0,"mode":4},{"attributes":{"NORMAL":37,"POSITION":11},"indices":63,"material":0,"mode":4},{"attributes":{"NORMAL":38,"POSITION":12},"indices":64,"material":0,"mode":4},{"attributes":{"NORMAL":39,"POSITION":13},"indices":65,"material":0,"mode":4},{"attributes":{"NORMAL":40,"POSITION":14},"indices":66,"material":0,"mode":4},{"attributes":{"NORMAL":41,"POSITION":15},"indices":67,"material":0,"mode":4},{"attributes":{"NORMAL":42,"POSITION":16},"indices":68,"material":0,"mode":4},{"attributes":{"NORMAL":43,"POSITION":17},"indices":69,"material":0,"mode":4},{"attributes":{"NORMAL":44,"POSITION":18},"indices":70,"material":0,"mode":4},{"attributes":{"NORMAL":45,"POSITION":19},"indices":71,"material":0,"mode":4},{"attributes":{"NORMAL":46,"POSITION":20},"indices":72,"material":0,"mode":4},{"attributes":{"NORMAL":47,"POSITION":21},"indices":73,"material":0,"mode":4},{"attributes":{"NORMAL":48,"POSITION":22},"indices":74,"material":0,"mode":4},{"attributes":{"NORMAL":49,"POSITION":23},"indices":75,"material":0,"mode":4},{"attributes":{"NORMAL":50,"POSITION":24},"indices":76,"material":0,"mode":4},{"attributes":{"NORMAL":51,"POSITION":25},"indices":77,"material":0,"mode":4}]}],"nodes":[{"mesh":0,"name":"Body"}],"scene":0,"scenes":[{"nodes":[0]}]}